<?xml version="1.0" standalone="no"?>
<!DOCTYPE svg PUBLIC "-//W3C//DTD SVG 20010904//EN"
 "http://www.w3.org/TR/2001/REC-SVG-20010904/DTD/svg10.dtd">
<svg version="1.0" xmlns="http://www.w3.org/2000/svg"
 width="864.000000pt" height="864.000000pt" viewBox="0 0 864.000000 864.000000"
 preserveAspectRatio="xMidYMid meet">
<metadata>
Created by potrace 1.14, written by Peter Selinger 2001-2017
</metadata>
<g transform="translate(0.000000,864.000000) scale(0.100000,-0.100000)"
fill="#000000" stroke="none">
<path d="M965 8620 c-492 -104 -859 -478 -950 -969 -13 -74 -15 -445 -15
-3333 0 -3219 0 -3251 20 -3349 101 -493 475 -862 969 -954 74 -13 445 -15
3333 -15 3219 0 3251 0 3349 20 493 101 862 475 954 969 13 74 15 445 15 3333
0 3219 0 3251 -20 3349 -101 493 -475 862 -969 954 -74 13 -444 15 -3340 14
-3154 0 -3259 -1 -3346 -19z m2815 -3170 c0 -684 1 -710 18 -710 14 0 30 22
56 75 102 206 285 354 517 417 75 20 105 23 279 22 228 0 293 -13 447 -89 257
-126 418 -346 491 -669 13 -62 16 -200 19 -1063 l4 -993 -386 0 -385 0 0 883
c0 957 1 931 -55 1055 -32 70 -121 162 -189 195 -152 74 -363 74 -516 0 -77
-37 -179 -142 -218 -223 -62 -132 -62 -132 -62 -1065 l0 -845 -385 0 -385 0 0
1860 0 1860 375 0 375 0 0 -710z"/>
</g>
</svg>
