<?xml version="1.0" standalone="no"?>
<!DOCTYPE svg PUBLIC "-//W3C//DTD SVG 20010904//EN"
 "http://www.w3.org/TR/2001/REC-SVG-20010904/DTD/svg10.dtd">
<svg version="1.0" xmlns="http://www.w3.org/2000/svg"
 width="864.000000pt" height="864.000000pt" viewBox="0 0 864.000000 864.000000"
 preserveAspectRatio="xMidYMid meet">
<metadata>
Created by potrace 1.14, written by Peter Selinger 2001-2017
</metadata>
<g transform="translate(0.000000,864.000000) scale(0.100000,-0.100000)"
fill="#000000" stroke="none">
<path d="M1065 8633 c-523 -69 -929 -440 -1041 -953 -18 -82 -19 -205 -19
-3360 0 -3159 1 -3278 19 -3360 104 -475 462 -833 936 -936 82 -18 205 -19
3360 -19 3159 0 3278 1 3360 19 475 104 833 462 936 936 18 82 19 205 19 3360
0 3159 -1 3278 -19 3360 -102 468 -443 815 -916 933 l-85 21 -3260 2 c-1793 1
-3273 -1 -3290 -3z m4585 -4333 l0 -1860 -385 0 -385 0 0 225 c0 255 -5 269
-60 166 -39 -72 -145 -204 -201 -250 -65 -54 -186 -119 -274 -148 -76 -26 -90
-27 -280 -28 -232 0 -300 13 -464 91 -173 81 -311 202 -421 366 -171 255 -239
505 -247 910 -10 458 58 744 242 1023 161 242 385 393 680 457 97 21 353 15
448 -10 215 -58 417 -223 519 -425 16 -32 34 -57 41 -54 9 3 13 169 15 700 l2
697 385 0 385 0 0 -1860z"/>
<path d="M4145 4631 c-75 -22 -108 -39 -173 -90 -99 -79 -179 -221 -225 -398
-20 -79 -22 -111 -21 -313 0 -211 2 -231 27 -325 90 -339 304 -515 597 -492
265 21 442 209 516 551 22 100 29 332 14 453 -42 338 -194 555 -430 618 -75
20 -230 18 -305 -4z"/>
</g>
</svg>
